<?xml version="1.0" encoding="UTF-8" standalone="no"?>
<svg
   xmlns:dc="http://purl.org/dc/elements/1.1/"
   xmlns:cc="http://creativecommons.org/ns#"
   xmlns:rdf="http://www.w3.org/1999/02/22-rdf-syntax-ns#"
   xmlns:svg="http://www.w3.org/2000/svg"
   xmlns="http://www.w3.org/2000/svg"
   xmlns:sodipodi="http://sodipodi.sourceforge.net/DTD/sodipodi-0.dtd"
   xmlns:inkscape="http://www.inkscape.org/namespaces/inkscape"
   id="Layer_1"
   data-name="Layer 1"
   viewBox="0 0 46.080002 46.080002"
   version="1.1"
   sodipodi:docname="cloud_download.svg"
   inkscape:version="0.92.5 (2060ec1f9f, 2020-04-08)"
   width="46.080002"
   height="46.080002">
  <metadata
     id="metadata49">
    <rdf:RDF>
      <cc:Work
         rdf:about="">
        <dc:format>image/svg+xml</dc:format>
        <dc:type
           rdf:resource="http://purl.org/dc/dcmitype/StillImage" />
        <dc:title>cloud_download</dc:title>
      </cc:Work>
    </rdf:RDF>
  </metadata>
  <defs
     id="defs47" />
  <sodipodi:namedview
     pagecolor="#ffffff"
     bordercolor="#666666"
     borderopacity="1"
     objecttolerance="10"
     gridtolerance="10"
     guidetolerance="10"
     inkscape:pageopacity="0"
     inkscape:pageshadow="2"
     inkscape:window-width="1366"
     inkscape:window-height="705"
     id="namedview45"
     showgrid="false"
     inkscape:zoom="0.921875"
     inkscape:cx="23.04"
     inkscape:cy="23.04"
     inkscape:window-x="-8"
     inkscape:window-y="-8"
     inkscape:window-maximized="1"
     inkscape:current-layer="Layer_1"
     fit-margin-top="0"
     fit-margin-left="0"
     fit-margin-right="0"
     fit-margin-bottom="0" />
  <title
     id="title2">cloud_download</title>
  <path
     d="M 46.08,23.04 C 46.08,35.7642 35.7642,46.08 23.04,46.08 10.3158,46.08 0,35.765107 0,23.04 0,10.314893 10.314893,0 23.04,0 35.765093,0 46.08,10.3158 46.08,23.04 Z"
     id="path4"
     inkscape:connector-curvature="0"
     style="fill:#404041;stroke-width:0.09" />
  <path
     d="M 2.52,12.5568 12.5568,2.52 A 23.139,23.139 0 0 0 2.52,12.5568 Z"
     id="path6"
     inkscape:connector-curvature="0"
     style="fill:#4d4d4f;stroke-width:0.09" />
  <path
     d="M 16.1154,1.0592928 1.0592928,16.1154 A 22.8726,22.8726 0 0 0 0.4806,18.337493 L 18.337493,0.4806 A 22.8546,22.8546 0 0 0 16.1154,1.0592928 Z"
     id="path8"
     inkscape:connector-curvature="0"
     style="fill:#4d4d4f;stroke-width:0.09" />
  <path
     d="m 20.8116,0.108 -20.7,20.7 q -0.087264,0.8676 -0.105264,1.7496 l 22.5504,-22.5513072 q -0.881093,0.018 -1.745093,0.101664 z"
     id="path10"
     inkscape:connector-curvature="0"
     style="fill:#4d4d4f;stroke-width:0.09" />
  <path
     d="M 24.6096,0.054 0.054,24.608707 Q 0.1044,25.3638 0.2034,26.1054 L 26.104493,0.2034 Q 25.364693,0.105336 24.6096,0.054 Z"
     id="path12"
     inkscape:connector-curvature="0"
     style="fill:#4d4d4f;stroke-width:0.09" />
  <path
     d="M 27.8946,0.5138928 0.5138928,27.895493 q 0.143136,0.666907 0.324,1.319414 L 29.214,0.8379072 Q 28.561507,0.657 27.8946,0.5138928 Z"
     id="path14"
     inkscape:connector-curvature="0"
     style="fill:#4d4d4f;stroke-width:0.09" />
  <path
     d="M 30.8088,1.3436928 1.3446,30.809693 Q 1.5588,31.41 1.8,31.992307 L 31.9914,1.8 Q 31.41,1.5578928 30.8088,1.3436928 Z"
     id="path16"
     inkscape:connector-curvature="0"
     style="fill:#4d4d4f;stroke-width:0.09" />
  <path
     d="m 33.426893,2.4696 -30.9600002,30.96 q 0.27,0.54 0.5751072,1.0674 L 34.4952,3.0446928 Q 33.9696,2.7432 33.426893,2.4696 Z"
     id="path18"
     inkscape:connector-curvature="0"
     style="fill:#4d4d4f;stroke-width:0.09" />
  <path
     d="M 35.792107,3.8492928 3.8492928,35.792107 Q 4.176,36.283493 4.527,36.756893 L 36.7578,4.5278928 Q 36.2844,4.176 35.792107,3.8492928 Z"
     id="path20"
     inkscape:connector-curvature="0"
     style="fill:#4d4d4f;stroke-width:0.09" />
  <path
     d="M 37.928707,5.4576 5.4584928,37.928707 q 0.3762,0.443693 0.774,0.868493 L 38.7972,6.2324928 Q 38.3724,5.8338 37.928707,5.4576 Z"
     id="path22"
     inkscape:connector-curvature="0"
     style="fill:#4d4d4f;stroke-width:0.09" />
  <path
     d="M 39.847493,7.2818928 7.2828,39.847493 q 0.4248,0.3978 0.8684928,0.774014 L 40.623293,8.1522 Q 40.2462,7.7076 39.847493,7.2818928 Z"
     id="path24"
     inkscape:connector-curvature="0"
     style="fill:#4d4d4f;stroke-width:0.09" />
  <path
     d="M 41.552107,9.3222 9.3222,41.552107 q 0.4734,0.351893 0.965693,0.678586 l 31.9428,-31.9428 Q 41.903093,9.7964928 41.552107,9.3222 Z"
     id="path26"
     inkscape:connector-curvature="0"
     style="fill:#4d4d4f;stroke-width:0.09" />
  <path
     d="m 43.035293,11.5848 -31.4514,31.4496 q 0.5256,0.301507 1.0692,0.576 l 30.96,-30.96 q -0.277186,-0.54 -0.5778,-1.0656 z"
     id="path28"
     inkscape:connector-curvature="0"
     style="fill:#4d4d4f;stroke-width:0.09" />
  <path
     d="M 44.28,14.087693 14.087693,44.28 q 0.583214,0.245693 1.1826,0.459893 L 44.7354,15.270293 Q 44.5212,14.67 44.28,14.087693 Z"
     id="path30"
     inkscape:connector-curvature="0"
     style="fill:#4d4d4f;stroke-width:0.09" />
  <path
     d="M 45.242107,16.866893 16.866,45.242107 q 0.6516,0.18 1.3194,0.323986 L 45.566093,18.1854 q -0.143136,-0.666907 -0.323986,-1.318507 z"
     id="path32"
     inkscape:connector-curvature="0"
     style="fill:#4d4d4f;stroke-width:0.09" />
  <path
     d="m 45.8766,19.98 -25.902,25.8966 q 0.740693,0.09806 1.4958,0.1494 L 46.026,21.4704 Q 45.974736,20.7162 45.8766,19.98 Z"
     id="path34"
     inkscape:connector-curvature="0"
     style="fill:#4d4d4f;stroke-width:0.09" />
  <path
     d="m 45.972893,25.267493 q 0.0828,-0.863093 0.101664,-1.7442 L 23.52325,46.073707 q 0.881107,-0.018 1.745107,-0.101664 z"
     id="path36"
     inkscape:connector-curvature="0"
     style="fill:#4d4d4f;stroke-width:0.09" />
  <path
     d="M 29.9628,45.020693 45.020693,29.9628 a 22.86,22.86 0 0 0 0.5778,-2.2212 l -17.8578,17.8578 A 22.8798,22.8798 0 0 0 29.9628,45.020693 Z"
     id="path38"
     inkscape:connector-curvature="0"
     style="fill:#4d4d4f;stroke-width:0.09" />
  <path
     d="M 43.56,33.524093 33.5232,43.56 A 23.1408,23.1408 0 0 0 43.56,33.524093 Z"
     id="path40"
     inkscape:connector-curvature="0"
     style="fill:#4d4d4f;stroke-width:0.09" />
  <path
     d="m 30.96,20.0556 c 0,-0.0576 0.0086,-0.113472 0.0086,-0.171893 0,-3.384014 -2.724293,-6.125414 -6.0858,-6.125414 -0.06926,0 -0.134064,0.01296 -0.2016,0.01526 a 1.1007,1.1007 0 0 1 0.06034,0.3366 v 7.5888 H 27.3168 L 23.04,27.22045 18.760493,21.69805 H 21.3354 v -6.7788 A 6.1281,6.1281 0 0 0 19.2438,17.592264 3.33,3.33 0 0 0 17.5032,17.099957 3.3957,3.3957 0 0 0 14.523293,22.07425 4.0905,4.0905 0 0 0 15.12,30.209357 H 30.170693 A 3.15,3.15 0 0 0 31.14,30.06 5.1354,5.1354 0 0 0 30.96,20.0556 Z"
     id="path42"
     inkscape:connector-curvature="0"
     style="fill:#ffffff;stroke-width:0.09" />
</svg>
